<svg xmlns="http://www.w3.org/2000/svg" data-name="glipy copy 6" viewBox="0 0 64 64"><path fill="#fff" d="M16.902 21.027l8.67926 5.78619a1.22955 1.22955 0 01.34869.34863L31.716 35.8411a3.15891 3.15891 0 005.54114-.54657L48.23578 8.616a3.16371 3.16371 0 00-4.1087-4.1087L17.44861 15.48588A3.1589 3.1589 0 0016.902 21.027zM21.88843 38.04649a.93919.93919 0 00.66626-.27613l4.16607-4.167a.94241.94241 0 00-1.33252-1.33252l-4.166 4.167A.94865.94865 0 0021.88843 38.04649zM15.63971 31.79679a.93911.93911 0 00.66626-.27606l4.16608-4.16614A.94244.94244 0 0019.13953 26.022l-4.16608 4.16614A.94863.94863 0 0015.63971 31.79679zM23.59644 30.479a.94244.94244 0 00-1.33252-1.33258L16.01434 35.396a.94866.94866 0 00.6662 1.60865.93922.93922 0 00.66632-.27607zM59 51.79209H35a3.98982 3.98982 0 00-2 .54c.0014.65515-.00415.38483.01 1a1.01 1.01 0 11-2.02 0c.01294-.62817.00909-.33875.01-1a3.98982 3.98982 0 00-2-.54H5a1.003 1.003 0 00-1 1v1a3.00883 3.00883 0 003 3H26.81a.99966.99966 0 01.86.49988 5.03672 5.03672 0 008.66.00012.99952.99952 0 01.86-.5H57a3.00883 3.00883 0 003-3v-1A1.003 1.003 0 0059 51.79209zM31 50.33207v-8.17c-1.88434-1.8346-4.11841-1.72187-7.42-.28009A40.88325 40.88325 0 017.95 45.8021a1.98266 1.98266 0 00-1.95 2v1.99H29A3.98982 3.98982 0 0131 50.33207zM33 42.162v8.17a3.98982 3.98982 0 012-.54H58v-1.99a2.00239 2.00239 0 00-1.95-2 40.88394 40.88394 0 01-15.63-3.92C37.11713 40.43986 34.88611 40.3281 33 42.162z" class="color29abe2 svgShape"/></svg>