<svg xmlns="http://www.w3.org/2000/svg" viewBox="0 0 64 64"><path d="M59 50.77255h-.998V48.77841a2.00621 2.00621 0 00-1.94824-1.999 40.82844 40.82844 0 01-15.63672-3.917c-3.93762-1.77691-6.84466-1.4906-8.41607 1.845-1.572-3.33551-4.47742-3.62152-8.4159-1.845A40.82785 40.82785 0 017.94727 46.77938 1.98209 1.98209 0 006 48.77841v1.99414H5a.99942.99942 0 00-1 1v2a3.00328 3.00328 0 003 3H26.81152a.99264.99264 0 01.85743.49707 5.03488 5.03488 0 008.6621-.00018.99442.99442 0 01.8584-.49689H57a3.00328 3.00328 0 003-3v-2A.99942.99942 0 0059 50.77255zM34.876 44.172c.98242-.63867 2.56738-.46875 4.71093.51074a42.90216 42.90216 0 0016.415 4.09571v1.99414H35a3.94526 3.94526 0 00-1.999.5614C33.02081 48.40255 33.28564 45.20663 34.876 44.172zM24.415 44.6827c2.14355-.97851 3.72754-1.14941 4.71094-.51074 1.58746 1.03461 1.85308 4.21137 1.87506 7.14472A4.353 4.353 0 0029 50.77255H7.9964l-.00714-1.99317A42.926 42.926 0 0024.415 44.6827zM58 53.77255a1.00067 1.00067 0 01-1 1H37.18945a2.99939 2.99939 0 00-2.59179 1.5 2.99963 2.99963 0 01-5.19629-.001 2.99622 2.99622 0 00-2.58985-1.499H7a1.00067 1.00067 0 01-1-1v-1H29a2.0026 2.0026 0 012 2 1 1 0 002 0 2.0026 2.0026 0 012-2H58zM15.99023 22.07138l9.209 6.13965a1.35642 1.35642 0 01.373.373l6.13964 9.21a3.34441 3.34441 0 005.875-.582L49.24219 8.90829a3.36286 3.36286 0 00-4.36634-4.36713L16.57129 16.19638A3.36668 3.36668 0 0015.99023 22.07138zM17.333 18.046L45.6377 6.39071a1.33806 1.33806 0 011.75494 1.7558L35.7373 36.45028a1.35061 1.35061 0 01-2.36132.23432l-6.14063-9.21186c.07746-.54437-9.61639-6.61474-10.13568-7.06555A1.35075 1.35075 0 0117.333 18.046z"/><path d="M22.34277 39.07235a.99672.99672 0 00.707-.293l4.4209-4.42187a1.00008 1.00008 0 00-1.41412-1.414l-4.42084 4.42181A1.00666 1.00666 0 0022.34277 39.07235zM20.83984 27.72665a1.00008 1.00008 0 00-1.41412-1.414l-4.42084 4.42084a1.00009 1.00009 0 001.41413 1.414zM16.81641 37.96688a.99675.99675 0 00.707-.293l6.63183-6.63184a1.00008 1.00008 0 00-1.41412-1.414l-6.63177 6.63177A1.00667 1.00667 0 0016.81641 37.96688z"/></svg>